#!OML:ASF X:\für Bonn\!DataBase\2005_08_11_Bastian_Final\c3d\Bastian.ASF
:FULLY-SPECIFIED
:DEGREES
46
root 1.79567 23.3951 -10.129 540.915 -190.207 -179.894
lowerback 10.7747 -3.78242 -1.38422
upperback 3.12825 -5.17484 -0.869124
thorax -2.71782 -2.56157 0.538416
lowerneck -9.29482 -3.83821 -0.0119673
upperneck -4.70222 -5.0459 7.6803
head 0.310421 -2.46137 2.26504
rclavicle -1.78906e-014 1.43125e-014
rhumerus -45.9342 18.246 -91.0344
rradius 101.511
rwrist 4.63972
rhand -12.9657 20.1221
rfingers 7.12502
rthumb 13.1263 -9.44472
lclavicle -1.78906e-014 1.43125e-014
lhumerus -45.1897 -8.82407 78.0571
lradius 108.174
lwrist -151.365
lhand -30.1604 8.11157
lfingers 7.12502
lthumb -3.47236 38.063
rfemur -24.6777 -7.04461 20.8178
rtibia 64.5135
rfoot 4.5292 1.14907
rtoes -14.432
lfemur -29.6582 9.55679 -17.8034
ltibia 71.353
lfoot 11.2947 -11.4838
ltoes -31.1521
47
root 1.80266 23.3981 -9.94862 540.915 -189.958 -179.926
lowerback 11.4758 -3.68687 -1.11371
upperback 3.23879 -5.0259 -0.873975
thorax -3.01245 -2.4839 0.409829
lowerneck -9.4802 -3.8934 0.0757382
upperneck -4.85065 -5.12292 7.623
head 0.292552 -2.50232 2.22624
rclavicle -1.67973e-014 2.78299e-015
rhumerus -45.7766 17.8137 -91.2081
rradius 99.098
rwrist 4.91895
rhand -13.5463 20.3781
rfingers 7.12502
rthumb 12.5665 -9.224
lclavicle -1.67973e-014 2.78299e-015
lhumerus -45.7793 -7.94831 78.2982
lradius 105.6
lwrist -152.368
lhand -29.6949 8.48248
lfingers 7.12502
lthumb -3.02284 38.4408
rfemur -25.1246 -6.64814 20.5797
rtibia 63.7813
rfoot 4.22776 1.20067
rtoes -14.7186
lfemur -30.0781 9.58833 -18.0729
ltibia 70.4256
lfoot 10.9391 -11.7972
ltoes -31.4015
48
root 1.80967 23.3886 -9.76517 540.99 -189.733 -179.982
lowerback 12.0127 -3.6028 -0.79649
upperback 3.36551 -4.88081 -0.882481
thorax -3.20236 -2.41008 0.236802
lowerneck -9.70262 -3.95983 0.0577787
upperneck -5.05198 -5.20122 7.76709
head 0.274286 -2.54129 2.27209
rclavicle -9.56154e-014 -3.97569e-015
rhumerus -45.5542 17.3375 -91.3812
rradius 96.612
rwrist 4.89084
rhand -13.9019 20.4293
rfingers 7.12502
rthumb 12.2237 -9.19345
lclavicle -9.56154e-014 -3.97569e-015
lhumerus -46.2189 -7.11437 78.4616
lradius 102.875
lwrist -153.284
lhand -29.2264 8.40423
lfingers 7.12502
lthumb -2.57034 38.3685
rfemur -25.6064 -6.31786 20.3758
rtibia 62.9899
rfoot 4.08727 1.17523
rtoes -15.2029
lfemur -30.549 9.57156 -18.3119
ltibia 69.4626
lfoot 10.5661 -12.1129
ltoes -31.7795
49
root 1.81787 23.3663 -9.5796 541.167 -189.511 -180.034
lowerback 12.4586 -3.53397 -0.509502
upperback 3.39939 -4.75572 -0.847847
thorax -3.43118 -2.34634 0.123419
lowerneck -9.71945 -4.01889 -0.228592
upperneck -5.3718 -5.22873 8.20495
head 0.200733 -2.55574 2.46978
rclavicle -1.09332e-015 2.66371e-014
rhumerus -45.4499 16.8951 -91.5039
rradius 94.228
rwrist 4.81345
rhand -14.1439 20.2561
rfingers 7.12502
rthumb 11.9904 -9.38051
lclavicle -1.09332e-015 2.66371e-014
lhumerus -46.669 -6.24288 78.6058
lradius 100.086
lwrist -154.223
lhand -28.6956 8.52679
lfingers 7.12502
lthumb -2.05768 38.4966
rfemur -26.1665 -6.00721 20.1727
rtibia 62.1614
rfoot 4.06927 1.0704
rtoes -16.056
lfemur -31.0818 9.55768 -18.5643
ltibia 68.4431
lfoot 10.1776 -12.3919
ltoes -32.3323
50
root 1.8268 23.3328 -9.39057 541.497 -189.297 -180.099
lowerback 12.7241 -3.48325 -0.190105
upperback 3.34544 -4.64833 -0.805693
thorax -3.65419 -2.29264 -0.00735713
lowerneck -9.67053 -4.05744 -0.263278
upperneck -5.69511 -5.25325 8.31154
head 0.0952211 -2.57732 2.51519
rclavicle 2.39536e-014 4.77083e-015
rhumerus -45.4511 16.4438 -91.6732
rradius 91.907
rwrist 4.64941
rhand -14.3775 20.0242
rfingers 7.12502
rthumb 11.7651 -9.62538
lclavicle 2.39536e-014 4.77083e-015
lhumerus -47.1316 -5.33103 78.6722
lradius 97.2552
lwrist -155.14
lhand -28.2738 8.68713
lfingers 7.12502
lthumb -1.65039 38.6605
rfemur -26.8734 -5.74755 19.987
rtibia 61.3106
rfoot 4.20462 0.924199
rtoes -17.1779
lfemur -31.7516 9.50945 -18.8303
ltibia 67.3738
lfoot 9.7723 -12.6468
ltoes -33.5538
51
root 1.83711 23.2937 -9.1967 541.864 -189.079 -180.196
lowerback 12.8363 -3.43498 0.173238
upperback 3.30755 -4.53638 -0.763017
thorax -3.7792 -2.23854 -0.174205
lowerneck -9.70063 -4.07332 -0.0169159
upperneck -5.93411 -5.28524 8.08843
head 0.00986815 -2.60588 2.39872
rclavicle 1.45113e-014 1.03368e-014
rhumerus -45.4063 15.9731 -91.839
rradius 89.6784
rwrist 4.3145
rhand -14.5678 19.676
rfingers 7.12502
rthumb 11.5816 -9.98394
lclavicle 1.45113e-014 1.03368e-014
lhumerus -47.5391 -4.4271 78.6595
lradius 94.3814
lwrist -156.018
lhand -27.8145 8.89235
lfingers 7.12502
lthumb -1.20672 38.8687
rfemur -27.5786 -5.5124 19.8188
rtibia 60.4228
rfoot 4.42907 0.736821
rtoes -18.0983
lfemur -32.374 9.48075 -19.0531
ltibia 66.2135
lfoot 9.49093 -12.8731
ltoes -34.509
52
root 1.84748 23.2437 -9.00141 542.179 -188.904 -180.387
lowerback 12.9533 -3.41839 0.607755
upperback 3.27063 -4.45349 -0.672234
thorax -3.9064 -2.19974 -0.326504
lowerneck -9.70022 -4.08261 0.0743236
upperneck -6.13783 -5.29426 8.004
head -0.0604504 -2.61888 2.35715
rclavicle 1.51076e-014 1.82882e-014
rhumerus -45.4044 15.5281 -91.9829
rradius 87.4966
rwrist 3.9662
rhand -14.7853 19.2234
rfingers 7.12502
rthumb 11.3718 -10.4482
lclavicle 1.51076e-014 1.82882e-014
lhumerus -47.9272 -3.49309 78.5992
lradius 91.5181
lwrist -156.888
lhand -27.2895 8.9967
lfingers 7.12502
lthumb -0.69974 38.9753
rfemur -28.1982 -5.3376 19.7486
rtibia 59.4816
rfoot 4.72441 0.530365
rtoes -18.8515
lfemur -32.9073 9.41965 -19.1328
ltibia 64.9736
lfoot 9.36261 -13.0205
ltoes -35.18
53
root 1.85908 23.1834 -8.8017 542.416 -188.745 -180.617
lowerback 13.0709 -3.41353 1.07636
upperback 3.27051 -4.37927 -0.571841
thorax -3.99625 -2.16587 -0.488254
lowerneck -9.74558 -4.07086 0.148111
upperneck -6.32062 -5.27544 7.96106
head -0.115618 -2.61583 2.33235
rclavicle -1.94809e-014 -7.95139e-016
rhumerus -45.4069 15.0595 -92.0942
rradius 85.2678
rwrist 3.81883
rhand -15.217 18.9571
rfingers 7.12502
rthumb 10.9554 -10.7371
lclavicle -1.94809e-014 -7.95139e-016
lhumerus -48.2495 -2.53676 78.4806
lradius 88.6351
lwrist -157.708
lhand -26.6849 9.12354
lfingers 7.12502
lthumb -0.115715 39.1033
rfemur -28.653 -5.16959 19.7161
rtibia 58.4554
rfoot 5.05926 0.313241
rtoes -19.2995
lfemur -33.2652 9.32117 -19.1334
ltibia 63.6325
lfoot 9.26232 -13.1179
ltoes -36.0138
54
root 1.87101 23.1088 -8.59577 542.516 -188.566 -180.828
lowerback 13.2405 -3.39648 1.51076
upperback 3.31632 -4.29124 -0.478675
thorax -4.06287 -2.12485 -0.639847
lowerneck -9.82102 -4.06217 0.176162
upperneck -6.46874 -5.25863 7.96409
head -0.151717 -2.61099 2.32969
rclavicle 6.07287e-014 -3.97569e-016
rhumerus -45.4459 14.5618 -92.1741
rradius 82.9388
rwrist 3.99556
rhand -15.945 18.9299
rfingers 7.12502
rthumb 10.2532 -10.8002
lclavicle 6.07287e-014 -3.97569e-016
lhumerus -48.4654 -1.56388 78.2826
lradius 85.709
lwrist -158.593
lhand -26.2317 9.28203
lfingers 7.12502
lthumb 0.321933 39.2615
rfemur -28.8727 -4.97994 19.6437
rtibia 57.3693
rfoot 5.40889 0.0429986
rtoes -18.804
lfemur -33.3697 9.25627 -19.1105
ltibia 62.1811
lfoot 9.21938 -13.2193
ltoes -36.8619
